<svg width="197" height="197" viewBox="0 0 197 197" fill="none" xmlns="http://www.w3.org/2000/svg">
<path d="M6.7931 0H0V6.7931H6.7931V0Z" fill="#0F1419"/>
<path d="M13.5862 0H6.7931V6.7931H13.5862V0Z" fill="#0F1419"/>
<path d="M20.3793 0H13.5862V6.7931H20.3793V0Z" fill="#0F1419"/>
<path d="M27.1724 0H20.3793V6.7931H27.1724V0Z" fill="#0F1419"/>
<path d="M33.9655 0H27.1724V6.7931H33.9655V0Z" fill="#0F1419"/>
<path d="M40.7586 0H33.9655V6.7931H40.7586V0Z" fill="#0F1419"/>
<path d="M47.5517 0H40.7586V6.7931H47.5517V0Z" fill="#0F1419"/>
<path d="M61.1379 0H54.3448V6.7931H61.1379V0Z" fill="#0F1419"/>
<path d="M122.276 0H115.483V6.7931H122.276V0Z" fill="#0F1419"/>
<path d="M129.069 0H122.276V6.7931H129.069V0Z" fill="#0F1419"/>
<path d="M135.862 0H129.069V6.7931H135.862V0Z" fill="#0F1419"/>
<path d="M142.655 0H135.862V6.7931H142.655V0Z" fill="#0F1419"/>
<path d="M156.241 0H149.448V6.7931H156.241V0Z" fill="#0F1419"/>
<path d="M163.034 0H156.241V6.7931H163.034V0Z" fill="#0F1419"/>
<path d="M169.828 0H163.034V6.7931H169.828V0Z" fill="#0F1419"/>
<path d="M176.621 0H169.828V6.7931H176.621V0Z" fill="#0F1419"/>
<path d="M183.414 0H176.621V6.7931H183.414V0Z" fill="#0F1419"/>
<path d="M190.207 0H183.414V6.7931H190.207V0Z" fill="#0F1419"/>
<path d="M197 0H190.207V6.7931H197V0Z" fill="#0F1419"/>
<path d="M6.7931 6.7931H0V13.5862H6.7931V6.7931Z" fill="#0F1419"/>
<path d="M47.5517 6.7931H40.7586V13.5862H47.5517V6.7931Z" fill="#0F1419"/>
<path d="M81.5172 6.7931H74.7241V13.5862H81.5172V6.7931Z" fill="#0F1419"/>
<path d="M156.241 6.7931H149.448V13.5862H156.241V6.7931Z" fill="#0F1419"/>
<path d="M197 6.7931H190.207V13.5862H197V6.7931Z" fill="#0F1419"/>
<path d="M6.7931 13.5862H0V20.3793H6.7931V13.5862Z" fill="#0F1419"/>
<path d="M20.3793 13.5862H13.5862V20.3793H20.3793V13.5862Z" fill="#0F1419"/>
<path d="M27.1724 13.5862H20.3793V20.3793H27.1724V13.5862Z" fill="#0F1419"/>
<path d="M33.9655 13.5862H27.1724V20.3793H33.9655V13.5862Z" fill="#0F1419"/>
<path d="M47.5517 13.5862H40.7586V20.3793H47.5517V13.5862Z" fill="#0F1419"/>
<path d="M61.1379 13.5862H54.3448V20.3793H61.1379V13.5862Z" fill="#0F1419"/>
<path d="M74.7241 13.5862H67.931V20.3793H74.7241V13.5862Z" fill="#0F1419"/>
<path d="M95.1034 13.5862H88.3103V20.3793H95.1034V13.5862Z" fill="#0F1419"/>
<path d="M108.69 13.5862H101.897V20.3793H108.69V13.5862Z" fill="#0F1419"/>
<path d="M115.483 13.5862H108.69V20.3793H115.483V13.5862Z" fill="#0F1419"/>
<path d="M129.069 13.5862H122.276V20.3793H129.069V13.5862Z" fill="#0F1419"/>
<path d="M156.241 13.5862H149.448V20.3793H156.241V13.5862Z" fill="#0F1419"/>
<path d="M169.828 13.5862H163.034V20.3793H169.828V13.5862Z" fill="#0F1419"/>
<path d="M176.621 13.5862H169.828V20.3793H176.621V13.5862Z" fill="#0F1419"/>
<path d="M183.414 13.5862H176.621V20.3793H183.414V13.5862Z" fill="#0F1419"/>
<path d="M197 13.5862H190.207V20.3793H197V13.5862Z" fill="#0F1419"/>
<path d="M6.7931 20.3793H0V27.1724H6.7931V20.3793Z" fill="#0F1419"/>
<path d="M20.3793 20.3793H13.5862V27.1724H20.3793V20.3793Z" fill="#0F1419"/>
<path d="M27.1724 20.3793H20.3793V27.1724H27.1724V20.3793Z" fill="#0F1419"/>
<path d="M33.9655 20.3793H27.1724V27.1724H33.9655V20.3793Z" fill="#0F1419"/>
<path d="M47.5517 20.3793H40.7586V27.1724H47.5517V20.3793Z" fill="#0F1419"/>
<path d="M61.1379 20.3793H54.3448V27.1724H61.1379V20.3793Z" fill="#0F1419"/>
<path d="M67.931 20.3793H61.1379V27.1724H67.931V20.3793Z" fill="#0F1419"/>
<path d="M74.7241 20.3793H67.931V27.1724H74.7241V20.3793Z" fill="#0F1419"/>
<path d="M88.3103 20.3793H81.5172V27.1724H88.3103V20.3793Z" fill="#0F1419"/>
<path d="M135.862 20.3793H129.069V27.1724H135.862V20.3793Z" fill="#0F1419"/>
<path d="M156.241 20.3793H149.448V27.1724H156.241V20.3793Z" fill="#0F1419"/>
<path d="M169.828 20.3793H163.034V27.1724H169.828V20.3793Z" fill="#0F1419"/>
<path d="M176.621 20.3793H169.828V27.1724H176.621V20.3793Z" fill="#0F1419"/>
<path d="M183.414 20.3793H176.621V27.1724H183.414V20.3793Z" fill="#0F1419"/>
<path d="M197 20.3793H190.207V27.1724H197V20.3793Z" fill="#0F1419"/>
<path d="M6.7931 27.1724H0V33.9655H6.7931V27.1724Z" fill="#0F1419"/>
<path d="M20.3793 27.1724H13.5862V33.9655H20.3793V27.1724Z" fill="#0F1419"/>
<path d="M27.1724 27.1724H20.3793V33.9655H27.1724V27.1724Z" fill="#0F1419"/>
<path d="M33.9655 27.1724H27.1724V33.9655H33.9655V27.1724Z" fill="#0F1419"/>
<path d="M47.5517 27.1724H40.7586V33.9655H47.5517V27.1724Z" fill="#0F1419"/>
<path d="M61.1379 27.1724H54.3448V33.9655H61.1379V27.1724Z" fill="#0F1419"/>
<path d="M88.3103 27.1724H81.5172V33.9655H88.3103V27.1724Z" fill="#0F1419"/>
<path d="M108.69 27.1724H101.897V33.9655H108.69V27.1724Z" fill="#0F1419"/>
<path d="M115.483 27.1724H108.69V33.9655H115.483V27.1724Z" fill="#0F1419"/>
<path d="M122.276 27.1724H115.483V33.9655H122.276V27.1724Z" fill="#0F1419"/>
<path d="M135.862 27.1724H129.069V33.9655H135.862V27.1724Z" fill="#0F1419"/>
<path d="M142.655 27.1724H135.862V33.9655H142.655V27.1724Z" fill="#0F1419"/>
<path d="M156.241 27.1724H149.448V33.9655H156.241V27.1724Z" fill="#0F1419"/>
<path d="M169.828 27.1724H163.034V33.9655H169.828V27.1724Z" fill="#0F1419"/>
<path d="M176.621 27.1724H169.828V33.9655H176.621V27.1724Z" fill="#0F1419"/>
<path d="M183.414 27.1724H176.621V33.9655H183.414V27.1724Z" fill="#0F1419"/>
<path d="M197 27.1724H190.207V33.9655H197V27.1724Z" fill="#0F1419"/>
<path d="M6.7931 33.9655H0V40.7586H6.7931V33.9655Z" fill="#0F1419"/>
<path d="M47.5517 33.9655H40.7586V40.7586H47.5517V33.9655Z" fill="#0F1419"/>
<path d="M61.1379 33.9655H54.3448V40.7586H61.1379V33.9655Z" fill="#0F1419"/>
<path d="M67.931 33.9655H61.1379V40.7586H67.931V33.9655Z" fill="#0F1419"/>
<path d="M74.7241 33.9655H67.931V40.7586H74.7241V33.9655Z" fill="#0F1419"/>
<path d="M81.5172 33.9655H74.7241V40.7586H81.5172V33.9655Z" fill="#0F1419"/>
<path d="M88.3103 33.9655H81.5172V40.7586H88.3103V33.9655Z" fill="#0F1419"/>
<path d="M95.1034 33.9655H88.3103V40.7586H95.1034V33.9655Z" fill="#0F1419"/>
<path d="M101.897 33.9655H95.1034V40.7586H101.897V33.9655Z" fill="#0F1419"/>
<path d="M122.276 33.9655H115.483V40.7586H122.276V33.9655Z" fill="#0F1419"/>
<path d="M142.655 33.9655H135.862V40.7586H142.655V33.9655Z" fill="#0F1419"/>
<path d="M156.241 33.9655H149.448V40.7586H156.241V33.9655Z" fill="#0F1419"/>
<path d="M197 33.9655H190.207V40.7586H197V33.9655Z" fill="#0F1419"/>
<path d="M6.7931 40.7586H0V47.5517H6.7931V40.7586Z" fill="#0F1419"/>
<path d="M13.5862 40.7586H6.7931V47.5517H13.5862V40.7586Z" fill="#0F1419"/>
<path d="M20.3793 40.7586H13.5862V47.5517H20.3793V40.7586Z" fill="#0F1419"/>
<path d="M27.1724 40.7586H20.3793V47.5517H27.1724V40.7586Z" fill="#0F1419"/>
<path d="M33.9655 40.7586H27.1724V47.5517H33.9655V40.7586Z" fill="#0F1419"/>
<path d="M40.7586 40.7586H33.9655V47.5517H40.7586V40.7586Z" fill="#0F1419"/>
<path d="M47.5517 40.7586H40.7586V47.5517H47.5517V40.7586Z" fill="#0F1419"/>
<path d="M61.1379 40.7586H54.3448V47.5517H61.1379V40.7586Z" fill="#0F1419"/>
<path d="M74.7241 40.7586H67.931V47.5517H74.7241V40.7586Z" fill="#0F1419"/>
<path d="M88.3103 40.7586H81.5172V47.5517H88.3103V40.7586Z" fill="#0F1419"/>
<path d="M101.897 40.7586H95.1034V47.5517H101.897V40.7586Z" fill="#0F1419"/>
<path d="M115.483 40.7586H108.69V47.5517H115.483V40.7586Z" fill="#0F1419"/>
<path d="M129.069 40.7586H122.276V47.5517H129.069V40.7586Z" fill="#0F1419"/>
<path d="M142.655 40.7586H135.862V47.5517H142.655V40.7586Z" fill="#0F1419"/>
<path d="M156.241 40.7586H149.448V47.5517H156.241V40.7586Z" fill="#0F1419"/>
<path d="M163.034 40.7586H156.241V47.5517H163.034V40.7586Z" fill="#0F1419"/>
<path d="M169.828 40.7586H163.034V47.5517H169.828V40.7586Z" fill="#0F1419"/>
<path d="M176.621 40.7586H169.828V47.5517H176.621V40.7586Z" fill="#0F1419"/>
<path d="M183.414 40.7586H176.621V47.5517H183.414V40.7586Z" fill="#0F1419"/>
<path d="M190.207 40.7586H183.414V47.5517H190.207V40.7586Z" fill="#0F1419"/>
<path d="M197 40.7586H190.207V47.5517H197V40.7586Z" fill="#0F1419"/>
<path d="M74.7241 47.5517H67.931V54.3448H74.7241V47.5517Z" fill="#0F1419"/>
<path d="M101.897 47.5517H95.1034V54.3448H101.897V47.5517Z" fill="#0F1419"/>
<path d="M108.69 47.5517H101.897V54.3448H108.69V47.5517Z" fill="#0F1419"/>
<path d="M122.276 47.5517H115.483V54.3448H122.276V47.5517Z" fill="#0F1419"/>
<path d="M129.069 47.5517H122.276V54.3448H129.069V47.5517Z" fill="#0F1419"/>
<path d="M142.655 47.5517H135.862V54.3448H142.655V47.5517Z" fill="#0F1419"/>
<path d="M20.3793 54.3448H13.5862V61.1379H20.3793V54.3448Z" fill="#0F1419"/>
<path d="M27.1724 54.3448H20.3793V61.1379H27.1724V54.3448Z" fill="#0F1419"/>
<path d="M33.9655 54.3448H27.1724V61.1379H33.9655V54.3448Z" fill="#0F1419"/>
<path d="M40.7586 54.3448H33.9655V61.1379H40.7586V54.3448Z" fill="#0F1419"/>
<path d="M47.5517 54.3448H40.7586V61.1379H47.5517V54.3448Z" fill="#0F1419"/>
<path d="M54.3448 54.3448H47.5517V61.1379H54.3448V54.3448Z" fill="#0F1419"/>
<path d="M81.5172 54.3448H74.7241V61.1379H81.5172V54.3448Z" fill="#0F1419"/>
<path d="M95.1034 54.3448H88.3103V61.1379H95.1034V54.3448Z" fill="#0F1419"/>
<path d="M108.69 54.3448H101.897V61.1379H108.69V54.3448Z" fill="#0F1419"/>
<path d="M115.483 54.3448H108.69V61.1379H115.483V54.3448Z" fill="#0F1419"/>
<path d="M135.862 54.3448H129.069V61.1379H135.862V54.3448Z" fill="#0F1419"/>
<path d="M149.448 54.3448H142.655V61.1379H149.448V54.3448Z" fill="#0F1419"/>
<path d="M163.034 54.3448H156.241V61.1379H163.034V54.3448Z" fill="#0F1419"/>
<path d="M169.828 54.3448H163.034V61.1379H169.828V54.3448Z" fill="#0F1419"/>
<path d="M176.621 54.3448H169.828V61.1379H176.621V54.3448Z" fill="#0F1419"/>
<path d="M183.414 54.3448H176.621V61.1379H183.414V54.3448Z" fill="#0F1419"/>
<path d="M197 54.3448H190.207V61.1379H197V54.3448Z" fill="#0F1419"/>
<path d="M6.7931 61.1379H0V67.931H6.7931V61.1379Z" fill="#0F1419"/>
<path d="M13.5862 61.1379H6.7931V67.931H13.5862V61.1379Z" fill="#0F1419"/>
<path d="M20.3793 61.1379H13.5862V67.931H20.3793V61.1379Z" fill="#0F1419"/>
<path d="M40.7586 61.1379H33.9655V67.931H40.7586V61.1379Z" fill="#0F1419"/>
<path d="M54.3448 61.1379H47.5517V67.931H54.3448V61.1379Z" fill="#0F1419"/>
<path d="M61.1379 61.1379H54.3448V67.931H61.1379V61.1379Z" fill="#0F1419"/>
<path d="M67.931 61.1379H61.1379V67.931H67.931V61.1379Z" fill="#0F1419"/>
<path d="M81.5172 61.1379H74.7241V67.931H81.5172V61.1379Z" fill="#0F1419"/>
<path d="M88.3103 61.1379H81.5172V67.931H88.3103V61.1379Z" fill="#0F1419"/>
<path d="M108.69 61.1379H101.897V67.931H108.69V61.1379Z" fill="#0F1419"/>
<path d="M129.069 61.1379H122.276V67.931H129.069V61.1379Z" fill="#0F1419"/>
<path d="M135.862 61.1379H129.069V67.931H135.862V61.1379Z" fill="#0F1419"/>
<path d="M142.655 61.1379H135.862V67.931H142.655V61.1379Z" fill="#0F1419"/>
<path d="M149.448 61.1379H142.655V67.931H149.448V61.1379Z" fill="#0F1419"/>
<path d="M156.241 61.1379H149.448V67.931H156.241V61.1379Z" fill="#0F1419"/>
<path d="M197 61.1379H190.207V67.931H197V61.1379Z" fill="#0F1419"/>
<path d="M6.7931 67.931H0V74.7241H6.7931V67.931Z" fill="#0F1419"/>
<path d="M13.5862 67.931H6.7931V74.7241H13.5862V67.931Z" fill="#0F1419"/>
<path d="M20.3793 67.931H13.5862V74.7241H20.3793V67.931Z" fill="#0F1419"/>
<path d="M27.1724 67.931H20.3793V74.7241H27.1724V67.931Z" fill="#0F1419"/>
<path d="M47.5517 67.931H40.7586V74.7241H47.5517V67.931Z" fill="#0F1419"/>
<path d="M54.3448 67.931H47.5517V74.7241H54.3448V67.931Z" fill="#0F1419"/>
<path d="M61.1379 67.931H54.3448V74.7241H61.1379V67.931Z" fill="#0F1419"/>
<path d="M67.931 67.931H61.1379V74.7241H67.931V67.931Z" fill="#0F1419"/>
<path d="M74.7241 67.931H67.931V74.7241H74.7241V67.931Z" fill="#0F1419"/>
<path d="M81.5172 67.931H74.7241V74.7241H81.5172V67.931Z" fill="#0F1419"/>
<path d="M88.3103 67.931H81.5172V74.7241H88.3103V67.931Z" fill="#0F1419"/>
<path d="M95.1034 67.931H88.3103V74.7241H95.1034V67.931Z" fill="#0F1419"/>
<path d="M101.897 67.931H95.1034V74.7241H101.897V67.931Z" fill="#0F1419"/>
<path d="M122.276 67.931H115.483V74.7241H122.276V67.931Z" fill="#0F1419"/>
<path d="M135.862 67.931H129.069V74.7241H135.862V67.931Z" fill="#0F1419"/>
<path d="M163.034 67.931H156.241V74.7241H163.034V67.931Z" fill="#0F1419"/>
<path d="M176.621 67.931H169.828V74.7241H176.621V67.931Z" fill="#0F1419"/>
<path d="M197 67.931H190.207V74.7241H197V67.931Z" fill="#0F1419"/>
<path d="M6.7931 74.7241H0V81.5172H6.7931V74.7241Z" fill="#0F1419"/>
<path d="M20.3793 74.7241H13.5862V81.5172H20.3793V74.7241Z" fill="#0F1419"/>
<path d="M61.1379 74.7241H54.3448V81.5172H61.1379V74.7241Z" fill="#0F1419"/>
<path d="M88.3103 74.7241H81.5172V81.5172H88.3103V74.7241Z" fill="#0F1419"/>
<path d="M95.1034 74.7241H88.3103V81.5172H95.1034V74.7241Z" fill="#0F1419"/>
<path d="M115.483 74.7241H108.69V81.5172H115.483V74.7241Z" fill="#0F1419"/>
<path d="M122.276 74.7241H115.483V81.5172H122.276V74.7241Z" fill="#0F1419"/>
<path d="M129.069 74.7241H122.276V81.5172H129.069V74.7241Z" fill="#0F1419"/>
<path d="M135.862 74.7241H129.069V81.5172H135.862V74.7241Z" fill="#0F1419"/>
<path d="M142.655 74.7241H135.862V81.5172H142.655V74.7241Z" fill="#0F1419"/>
<path d="M149.448 74.7241H142.655V81.5172H149.448V74.7241Z" fill="#0F1419"/>
<path d="M163.034 74.7241H156.241V81.5172H163.034V74.7241Z" fill="#0F1419"/>
<path d="M169.828 74.7241H163.034V81.5172H169.828V74.7241Z" fill="#0F1419"/>
<path d="M176.621 74.7241H169.828V81.5172H176.621V74.7241Z" fill="#0F1419"/>
<path d="M197 74.7241H190.207V81.5172H197V74.7241Z" fill="#0F1419"/>
<path d="M13.5862 81.5172H6.7931V88.3103H13.5862V81.5172Z" fill="#0F1419"/>
<path d="M27.1724 81.5172H20.3793V88.3103H27.1724V81.5172Z" fill="#0F1419"/>
<path d="M33.9655 81.5172H27.1724V88.3103H33.9655V81.5172Z" fill="#0F1419"/>
<path d="M47.5517 81.5172H40.7586V88.3103H47.5517V81.5172Z" fill="#0F1419"/>
<path d="M54.3448 81.5172H47.5517V88.3103H54.3448V81.5172Z" fill="#0F1419"/>
<path d="M67.931 81.5172H61.1379V88.3103H67.931V81.5172Z" fill="#0F1419"/>
<path d="M74.7241 81.5172H67.931V88.3103H74.7241V81.5172Z" fill="#0F1419"/>
<path d="M95.1034 81.5172H88.3103V88.3103H95.1034V81.5172Z" fill="#0F1419"/>
<path d="M101.897 81.5172H95.1034V88.3103H101.897V81.5172Z" fill="#0F1419"/>
<path d="M115.483 81.5172H108.69V88.3103H115.483V81.5172Z" fill="#0F1419"/>
<path d="M122.276 81.5172H115.483V88.3103H122.276V81.5172Z" fill="#0F1419"/>
<path d="M129.069 81.5172H122.276V88.3103H129.069V81.5172Z" fill="#0F1419"/>
<path d="M142.655 81.5172H135.862V88.3103H142.655V81.5172Z" fill="#0F1419"/>
<path d="M156.241 81.5172H149.448V88.3103H156.241V81.5172Z" fill="#0F1419"/>
<path d="M169.828 81.5172H163.034V88.3103H169.828V81.5172Z" fill="#0F1419"/>
<path d="M183.414 81.5172H176.621V88.3103H183.414V81.5172Z" fill="#0F1419"/>
<path d="M190.207 81.5172H183.414V88.3103H190.207V81.5172Z" fill="#0F1419"/>
<path d="M197 81.5172H190.207V88.3103H197V81.5172Z" fill="#0F1419"/>
<path d="M6.7931 88.3103H0V95.1034H6.7931V88.3103Z" fill="#0F1419"/>
<path d="M13.5862 88.3103H6.7931V95.1034H13.5862V88.3103Z" fill="#0F1419"/>
<path d="M20.3793 88.3103H13.5862V95.1034H20.3793V88.3103Z" fill="#0F1419"/>
<path d="M67.931 88.3103H61.1379V95.1034H67.931V88.3103Z" fill="#0F1419"/>
<path d="M74.7241 88.3103H67.931V95.1034H74.7241V88.3103Z" fill="#0F1419"/>
<path d="M81.5172 88.3103H74.7241V95.1034H81.5172V88.3103Z" fill="#0F1419"/>
<path d="M122.276 88.3103H115.483V95.1034H122.276V88.3103Z" fill="#0F1419"/>
<path d="M129.069 88.3103H122.276V95.1034H129.069V88.3103Z" fill="#0F1419"/>
<path d="M135.862 88.3103H129.069V95.1034H135.862V88.3103Z" fill="#0F1419"/>
<path d="M176.621 88.3103H169.828V95.1034H176.621V88.3103Z" fill="#0F1419"/>
<path d="M190.207 88.3103H183.414V95.1034H190.207V88.3103Z" fill="#0F1419"/>
<path d="M197 88.3103H190.207V95.1034H197V88.3103Z" fill="#0F1419"/>
<path d="M6.7931 95.1034H0V101.897H6.7931V95.1034Z" fill="#0F1419"/>
<path d="M13.5862 95.1034H6.7931V101.897H13.5862V95.1034Z" fill="#0F1419"/>
<path d="M27.1724 95.1034H20.3793V101.897H27.1724V95.1034Z" fill="#0F1419"/>
<path d="M47.5517 95.1034H40.7586V101.897H47.5517V95.1034Z" fill="#0F1419"/>
<path d="M54.3448 95.1034H47.5517V101.897H54.3448V95.1034Z" fill="#0F1419"/>
<path d="M67.931 95.1034H61.1379V101.897H67.931V95.1034Z" fill="#0F1419"/>
<path d="M74.7241 95.1034H67.931V101.897H74.7241V95.1034Z" fill="#0F1419"/>
<path d="M88.3103 95.1034H81.5172V101.897H88.3103V95.1034Z" fill="#0F1419"/>
<path d="M108.69 95.1034H101.897V101.897H108.69V95.1034Z" fill="#0F1419"/>
<path d="M122.276 95.1034H115.483V101.897H122.276V95.1034Z" fill="#0F1419"/>
<path d="M129.069 95.1034H122.276V101.897H129.069V95.1034Z" fill="#0F1419"/>
<path d="M142.655 95.1034H135.862V101.897H142.655V95.1034Z" fill="#0F1419"/>
<path d="M163.034 95.1034H156.241V101.897H163.034V95.1034Z" fill="#0F1419"/>
<path d="M176.621 95.1034H169.828V101.897H176.621V95.1034Z" fill="#0F1419"/>
<path d="M183.414 95.1034H176.621V101.897H183.414V95.1034Z" fill="#0F1419"/>
<path d="M190.207 95.1034H183.414V101.897H190.207V95.1034Z" fill="#0F1419"/>
<path d="M197 95.1034H190.207V101.897H197V95.1034Z" fill="#0F1419"/>
<path d="M6.7931 101.897H0V108.69H6.7931V101.897Z" fill="#0F1419"/>
<path d="M13.5862 101.897H6.7931V108.69H13.5862V101.897Z" fill="#0F1419"/>
<path d="M20.3793 101.897H13.5862V108.69H20.3793V101.897Z" fill="#0F1419"/>
<path d="M27.1724 101.897H20.3793V108.69H27.1724V101.897Z" fill="#0F1419"/>
<path d="M33.9655 101.897H27.1724V108.69H33.9655V101.897Z" fill="#0F1419"/>
<path d="M67.931 101.897H61.1379V108.69H67.931V101.897Z" fill="#0F1419"/>
<path d="M74.7241 101.897H67.931V108.69H74.7241V101.897Z" fill="#0F1419"/>
<path d="M81.5172 101.897H74.7241V108.69H81.5172V101.897Z" fill="#0F1419"/>
<path d="M88.3103 101.897H81.5172V108.69H88.3103V101.897Z" fill="#0F1419"/>
<path d="M95.1034 101.897H88.3103V108.69H95.1034V101.897Z" fill="#0F1419"/>
<path d="M122.276 101.897H115.483V108.69H122.276V101.897Z" fill="#0F1419"/>
<path d="M129.069 101.897H122.276V108.69H129.069V101.897Z" fill="#0F1419"/>
<path d="M135.862 101.897H129.069V108.69H135.862V101.897Z" fill="#0F1419"/>
<path d="M142.655 101.897H135.862V108.69H142.655V101.897Z" fill="#0F1419"/>
<path d="M149.448 101.897H142.655V108.69H149.448V101.897Z" fill="#0F1419"/>
<path d="M176.621 101.897H169.828V108.69H176.621V101.897Z" fill="#0F1419"/>
<path d="M183.414 101.897H176.621V108.69H183.414V101.897Z" fill="#0F1419"/>
<path d="M190.207 101.897H183.414V108.69H190.207V101.897Z" fill="#0F1419"/>
<path d="M197 101.897H190.207V108.69H197V101.897Z" fill="#0F1419"/>
<path d="M13.5862 108.69H6.7931V115.483H13.5862V108.69Z" fill="#0F1419"/>
<path d="M33.9655 108.69H27.1724V115.483H33.9655V108.69Z" fill="#0F1419"/>
<path d="M47.5517 108.69H40.7586V115.483H47.5517V108.69Z" fill="#0F1419"/>
<path d="M54.3448 108.69H47.5517V115.483H54.3448V108.69Z" fill="#0F1419"/>
<path d="M61.1379 108.69H54.3448V115.483H61.1379V108.69Z" fill="#0F1419"/>
<path d="M74.7241 108.69H67.931V115.483H74.7241V108.69Z" fill="#0F1419"/>
<path d="M95.1034 108.69H88.3103V115.483H95.1034V108.69Z" fill="#0F1419"/>
<path d="M108.69 108.69H101.897V115.483H108.69V108.69Z" fill="#0F1419"/>
<path d="M115.483 108.69H108.69V115.483H115.483V108.69Z" fill="#0F1419"/>
<path d="M129.069 108.69H122.276V115.483H129.069V108.69Z" fill="#0F1419"/>
<path d="M149.448 108.69H142.655V115.483H149.448V108.69Z" fill="#0F1419"/>
<path d="M163.034 108.69H156.241V115.483H163.034V108.69Z" fill="#0F1419"/>
<path d="M169.828 108.69H163.034V115.483H169.828V108.69Z" fill="#0F1419"/>
<path d="M183.414 108.69H176.621V115.483H183.414V108.69Z" fill="#0F1419"/>
<path d="M27.1724 115.483H20.3793V122.276H27.1724V115.483Z" fill="#0F1419"/>
<path d="M40.7586 115.483H33.9655V122.276H40.7586V115.483Z" fill="#0F1419"/>
<path d="M67.931 115.483H61.1379V122.276H67.931V115.483Z" fill="#0F1419"/>
<path d="M74.7241 115.483H67.931V122.276H74.7241V115.483Z" fill="#0F1419"/>
<path d="M81.5172 115.483H74.7241V122.276H81.5172V115.483Z" fill="#0F1419"/>
<path d="M122.276 115.483H115.483V122.276H122.276V115.483Z" fill="#0F1419"/>
<path d="M129.069 115.483H122.276V122.276H129.069V115.483Z" fill="#0F1419"/>
<path d="M135.862 115.483H129.069V122.276H135.862V115.483Z" fill="#0F1419"/>
<path d="M176.621 115.483H169.828V122.276H176.621V115.483Z" fill="#0F1419"/>
<path d="M183.414 115.483H176.621V122.276H183.414V115.483Z" fill="#0F1419"/>
<path d="M190.207 115.483H183.414V122.276H190.207V115.483Z" fill="#0F1419"/>
<path d="M6.7931 122.276H0V129.069H6.7931V122.276Z" fill="#0F1419"/>
<path d="M20.3793 122.276H13.5862V129.069H20.3793V122.276Z" fill="#0F1419"/>
<path d="M33.9655 122.276H27.1724V129.069H33.9655V122.276Z" fill="#0F1419"/>
<path d="M47.5517 122.276H40.7586V129.069H47.5517V122.276Z" fill="#0F1419"/>
<path d="M54.3448 122.276H47.5517V129.069H54.3448V122.276Z" fill="#0F1419"/>
<path d="M61.1379 122.276H54.3448V129.069H61.1379V122.276Z" fill="#0F1419"/>
<path d="M67.931 122.276H61.1379V129.069H67.931V122.276Z" fill="#0F1419"/>
<path d="M81.5172 122.276H74.7241V129.069H81.5172V122.276Z" fill="#0F1419"/>
<path d="M95.1034 122.276H88.3103V129.069H95.1034V122.276Z" fill="#0F1419"/>
<path d="M101.897 122.276H95.1034V129.069H101.897V122.276Z" fill="#0F1419"/>
<path d="M115.483 122.276H108.69V129.069H115.483V122.276Z" fill="#0F1419"/>
<path d="M135.862 122.276H129.069V129.069H135.862V122.276Z" fill="#0F1419"/>
<path d="M149.448 122.276H142.655V129.069H149.448V122.276Z" fill="#0F1419"/>
<path d="M156.241 122.276H149.448V129.069H156.241V122.276Z" fill="#0F1419"/>
<path d="M169.828 122.276H163.034V129.069H169.828V122.276Z" fill="#0F1419"/>
<path d="M190.207 122.276H183.414V129.069H190.207V122.276Z" fill="#0F1419"/>
<path d="M6.7931 129.069H0V135.862H6.7931V129.069Z" fill="#0F1419"/>
<path d="M20.3793 129.069H13.5862V135.862H20.3793V129.069Z" fill="#0F1419"/>
<path d="M33.9655 129.069H27.1724V135.862H33.9655V129.069Z" fill="#0F1419"/>
<path d="M54.3448 129.069H47.5517V135.862H54.3448V129.069Z" fill="#0F1419"/>
<path d="M67.931 129.069H61.1379V135.862H67.931V129.069Z" fill="#0F1419"/>
<path d="M95.1034 129.069H88.3103V135.862H95.1034V129.069Z" fill="#0F1419"/>
<path d="M108.69 129.069H101.897V135.862H108.69V129.069Z" fill="#0F1419"/>
<path d="M122.276 129.069H115.483V135.862H122.276V129.069Z" fill="#0F1419"/>
<path d="M135.862 129.069H129.069V135.862H135.862V129.069Z" fill="#0F1419"/>
<path d="M156.241 129.069H149.448V135.862H156.241V129.069Z" fill="#0F1419"/>
<path d="M163.034 129.069H156.241V135.862H163.034V129.069Z" fill="#0F1419"/>
<path d="M183.414 129.069H176.621V135.862H183.414V129.069Z" fill="#0F1419"/>
<path d="M197 129.069H190.207V135.862H197V129.069Z" fill="#0F1419"/>
<path d="M6.7931 135.862H0V142.655H6.7931V135.862Z" fill="#0F1419"/>
<path d="M13.5862 135.862H6.7931V142.655H13.5862V135.862Z" fill="#0F1419"/>
<path d="M27.1724 135.862H20.3793V142.655H27.1724V135.862Z" fill="#0F1419"/>
<path d="M33.9655 135.862H27.1724V142.655H33.9655V135.862Z" fill="#0F1419"/>
<path d="M47.5517 135.862H40.7586V142.655H47.5517V135.862Z" fill="#0F1419"/>
<path d="M54.3448 135.862H47.5517V142.655H54.3448V135.862Z" fill="#0F1419"/>
<path d="M67.931 135.862H61.1379V142.655H67.931V135.862Z" fill="#0F1419"/>
<path d="M81.5172 135.862H74.7241V142.655H81.5172V135.862Z" fill="#0F1419"/>
<path d="M95.1034 135.862H88.3103V142.655H95.1034V135.862Z" fill="#0F1419"/>
<path d="M101.897 135.862H95.1034V142.655H101.897V135.862Z" fill="#0F1419"/>
<path d="M115.483 135.862H108.69V142.655H115.483V135.862Z" fill="#0F1419"/>
<path d="M122.276 135.862H115.483V142.655H122.276V135.862Z" fill="#0F1419"/>
<path d="M135.862 135.862H129.069V142.655H135.862V135.862Z" fill="#0F1419"/>
<path d="M142.655 135.862H135.862V142.655H142.655V135.862Z" fill="#0F1419"/>
<path d="M149.448 135.862H142.655V142.655H149.448V135.862Z" fill="#0F1419"/>
<path d="M156.241 135.862H149.448V142.655H156.241V135.862Z" fill="#0F1419"/>
<path d="M163.034 135.862H156.241V142.655H163.034V135.862Z" fill="#0F1419"/>
<path d="M169.828 135.862H163.034V142.655H169.828V135.862Z" fill="#0F1419"/>
<path d="M190.207 135.862H183.414V142.655H190.207V135.862Z" fill="#0F1419"/>
<path d="M67.931 142.655H61.1379V149.448H67.931V142.655Z" fill="#0F1419"/>
<path d="M81.5172 142.655H74.7241V149.448H81.5172V142.655Z" fill="#0F1419"/>
<path d="M95.1034 142.655H88.3103V149.448H95.1034V142.655Z" fill="#0F1419"/>
<path d="M108.69 142.655H101.897V149.448H108.69V142.655Z" fill="#0F1419"/>
<path d="M135.862 142.655H129.069V149.448H135.862V142.655Z" fill="#0F1419"/>
<path d="M142.655 142.655H135.862V149.448H142.655V142.655Z" fill="#0F1419"/>
<path d="M169.828 142.655H163.034V149.448H169.828V142.655Z" fill="#0F1419"/>
<path d="M190.207 142.655H183.414V149.448H190.207V142.655Z" fill="#0F1419"/>
<path d="M6.7931 149.448H0V156.241H6.7931V149.448Z" fill="#0F1419"/>
<path d="M13.5862 149.448H6.7931V156.241H13.5862V149.448Z" fill="#0F1419"/>
<path d="M20.3793 149.448H13.5862V156.241H20.3793V149.448Z" fill="#0F1419"/>
<path d="M27.1724 149.448H20.3793V156.241H27.1724V149.448Z" fill="#0F1419"/>
<path d="M33.9655 149.448H27.1724V156.241H33.9655V149.448Z" fill="#0F1419"/>
<path d="M40.7586 149.448H33.9655V156.241H40.7586V149.448Z" fill="#0F1419"/>
<path d="M47.5517 149.448H40.7586V156.241H47.5517V149.448Z" fill="#0F1419"/>
<path d="M61.1379 149.448H54.3448V156.241H61.1379V149.448Z" fill="#0F1419"/>
<path d="M67.931 149.448H61.1379V156.241H67.931V149.448Z" fill="#0F1419"/>
<path d="M95.1034 149.448H88.3103V156.241H95.1034V149.448Z" fill="#0F1419"/>
<path d="M108.69 149.448H101.897V156.241H108.69V149.448Z" fill="#0F1419"/>
<path d="M122.276 149.448H115.483V156.241H122.276V149.448Z" fill="#0F1419"/>
<path d="M135.862 149.448H129.069V156.241H135.862V149.448Z" fill="#0F1419"/>
<path d="M142.655 149.448H135.862V156.241H142.655V149.448Z" fill="#0F1419"/>
<path d="M156.241 149.448H149.448V156.241H156.241V149.448Z" fill="#0F1419"/>
<path d="M169.828 149.448H163.034V156.241H169.828V149.448Z" fill="#0F1419"/>
<path d="M183.414 149.448H176.621V156.241H183.414V149.448Z" fill="#0F1419"/>
<path d="M197 149.448H190.207V156.241H197V149.448Z" fill="#0F1419"/>
<path d="M6.7931 156.241H0V163.034H6.7931V156.241Z" fill="#0F1419"/>
<path d="M47.5517 156.241H40.7586V163.034H47.5517V156.241Z" fill="#0F1419"/>
<path d="M61.1379 156.241H54.3448V163.034H61.1379V156.241Z" fill="#0F1419"/>
<path d="M67.931 156.241H61.1379V163.034H67.931V156.241Z" fill="#0F1419"/>
<path d="M74.7241 156.241H67.931V163.034H74.7241V156.241Z" fill="#0F1419"/>
<path d="M88.3103 156.241H81.5172V163.034H88.3103V156.241Z" fill="#0F1419"/>
<path d="M95.1034 156.241H88.3103V163.034H95.1034V156.241Z" fill="#0F1419"/>
<path d="M108.69 156.241H101.897V163.034H108.69V156.241Z" fill="#0F1419"/>
<path d="M122.276 156.241H115.483V163.034H122.276V156.241Z" fill="#0F1419"/>
<path d="M135.862 156.241H129.069V163.034H135.862V156.241Z" fill="#0F1419"/>
<path d="M142.655 156.241H135.862V163.034H142.655V156.241Z" fill="#0F1419"/>
<path d="M169.828 156.241H163.034V163.034H169.828V156.241Z" fill="#0F1419"/>
<path d="M183.414 156.241H176.621V163.034H183.414V156.241Z" fill="#0F1419"/>
<path d="M197 156.241H190.207V163.034H197V156.241Z" fill="#0F1419"/>
<path d="M6.7931 163.034H0V169.828H6.7931V163.034Z" fill="#0F1419"/>
<path d="M20.3793 163.034H13.5862V169.828H20.3793V163.034Z" fill="#0F1419"/>
<path d="M27.1724 163.034H20.3793V169.828H27.1724V163.034Z" fill="#0F1419"/>
<path d="M33.9655 163.034H27.1724V169.828H33.9655V163.034Z" fill="#0F1419"/>
<path d="M47.5517 163.034H40.7586V169.828H47.5517V163.034Z" fill="#0F1419"/>
<path d="M61.1379 163.034H54.3448V169.828H61.1379V163.034Z" fill="#0F1419"/>
<path d="M67.931 163.034H61.1379V169.828H67.931V163.034Z" fill="#0F1419"/>
<path d="M81.5172 163.034H74.7241V169.828H81.5172V163.034Z" fill="#0F1419"/>
<path d="M95.1034 163.034H88.3103V169.828H95.1034V163.034Z" fill="#0F1419"/>
<path d="M108.69 163.034H101.897V169.828H108.69V163.034Z" fill="#0F1419"/>
<path d="M122.276 163.034H115.483V169.828H122.276V163.034Z" fill="#0F1419"/>
<path d="M129.069 163.034H122.276V169.828H129.069V163.034Z" fill="#0F1419"/>
<path d="M135.862 163.034H129.069V169.828H135.862V163.034Z" fill="#0F1419"/>
<path d="M142.655 163.034H135.862V169.828H142.655V163.034Z" fill="#0F1419"/>
<path d="M149.448 163.034H142.655V169.828H149.448V163.034Z" fill="#0F1419"/>
<path d="M156.241 163.034H149.448V169.828H156.241V163.034Z" fill="#0F1419"/>
<path d="M163.034 163.034H156.241V169.828H163.034V163.034Z" fill="#0F1419"/>
<path d="M169.828 163.034H163.034V169.828H169.828V163.034Z" fill="#0F1419"/>
<path d="M183.414 163.034H176.621V169.828H183.414V163.034Z" fill="#0F1419"/>
<path d="M197 163.034H190.207V169.828H197V163.034Z" fill="#0F1419"/>
<path d="M6.7931 169.828H0V176.621H6.7931V169.828Z" fill="#0F1419"/>
<path d="M20.3793 169.828H13.5862V176.621H20.3793V169.828Z" fill="#0F1419"/>
<path d="M27.1724 169.828H20.3793V176.621H27.1724V169.828Z" fill="#0F1419"/>
<path d="M33.9655 169.828H27.1724V176.621H33.9655V169.828Z" fill="#0F1419"/>
<path d="M47.5517 169.828H40.7586V176.621H47.5517V169.828Z" fill="#0F1419"/>
<path d="M61.1379 169.828H54.3448V176.621H61.1379V169.828Z" fill="#0F1419"/>
<path d="M67.931 169.828H61.1379V176.621H67.931V169.828Z" fill="#0F1419"/>
<path d="M81.5172 169.828H74.7241V176.621H81.5172V169.828Z" fill="#0F1419"/>
<path d="M101.897 169.828H95.1034V176.621H101.897V169.828Z" fill="#0F1419"/>
<path d="M108.69 169.828H101.897V176.621H108.69V169.828Z" fill="#0F1419"/>
<path d="M122.276 169.828H115.483V176.621H122.276V169.828Z" fill="#0F1419"/>
<path d="M135.862 169.828H129.069V176.621H135.862V169.828Z" fill="#0F1419"/>
<path d="M142.655 169.828H135.862V176.621H142.655V169.828Z" fill="#0F1419"/>
<path d="M156.241 169.828H149.448V176.621H156.241V169.828Z" fill="#0F1419"/>
<path d="M163.034 169.828H156.241V176.621H163.034V169.828Z" fill="#0F1419"/>
<path d="M176.621 169.828H169.828V176.621H176.621V169.828Z" fill="#0F1419"/>
<path d="M190.207 169.828H183.414V176.621H190.207V169.828Z" fill="#0F1419"/>
<path d="M197 169.828H190.207V176.621H197V169.828Z" fill="#0F1419"/>
<path d="M6.7931 176.621H0V183.414H6.7931V176.621Z" fill="#0F1419"/>
<path d="M20.3793 176.621H13.5862V183.414H20.3793V176.621Z" fill="#0F1419"/>
<path d="M27.1724 176.621H20.3793V183.414H27.1724V176.621Z" fill="#0F1419"/>
<path d="M33.9655 176.621H27.1724V183.414H33.9655V176.621Z" fill="#0F1419"/>
<path d="M47.5517 176.621H40.7586V183.414H47.5517V176.621Z" fill="#0F1419"/>
<path d="M61.1379 176.621H54.3448V183.414H61.1379V176.621Z" fill="#0F1419"/>
<path d="M88.3103 176.621H81.5172V183.414H88.3103V176.621Z" fill="#0F1419"/>
<path d="M115.483 176.621H108.69V183.414H115.483V176.621Z" fill="#0F1419"/>
<path d="M129.069 176.621H122.276V183.414H129.069V176.621Z" fill="#0F1419"/>
<path d="M142.655 176.621H135.862V183.414H142.655V176.621Z" fill="#0F1419"/>
<path d="M156.241 176.621H149.448V183.414H156.241V176.621Z" fill="#0F1419"/>
<path d="M169.828 176.621H163.034V183.414H169.828V176.621Z" fill="#0F1419"/>
<path d="M197 176.621H190.207V183.414H197V176.621Z" fill="#0F1419"/>
<path d="M6.7931 183.414H0V190.207H6.7931V183.414Z" fill="#0F1419"/>
<path d="M47.5517 183.414H40.7586V190.207H47.5517V183.414Z" fill="#0F1419"/>
<path d="M67.931 183.414H61.1379V190.207H67.931V183.414Z" fill="#0F1419"/>
<path d="M88.3103 183.414H81.5172V190.207H88.3103V183.414Z" fill="#0F1419"/>
<path d="M108.69 183.414H101.897V190.207H108.69V183.414Z" fill="#0F1419"/>
<path d="M122.276 183.414H115.483V190.207H122.276V183.414Z" fill="#0F1419"/>
<path d="M142.655 183.414H135.862V190.207H142.655V183.414Z" fill="#0F1419"/>
<path d="M163.034 183.414H156.241V190.207H163.034V183.414Z" fill="#0F1419"/>
<path d="M169.828 183.414H163.034V190.207H169.828V183.414Z" fill="#0F1419"/>
<path d="M183.414 183.414H176.621V190.207H183.414V183.414Z" fill="#0F1419"/>
<path d="M190.207 183.414H183.414V190.207H190.207V183.414Z" fill="#0F1419"/>
<path d="M6.7931 190.207H0V197H6.7931V190.207Z" fill="#0F1419"/>
<path d="M13.5862 190.207H6.7931V197H13.5862V190.207Z" fill="#0F1419"/>
<path d="M20.3793 190.207H13.5862V197H20.3793V190.207Z" fill="#0F1419"/>
<path d="M27.1724 190.207H20.3793V197H27.1724V190.207Z" fill="#0F1419"/>
<path d="M33.9655 190.207H27.1724V197H33.9655V190.207Z" fill="#0F1419"/>
<path d="M40.7586 190.207H33.9655V197H40.7586V190.207Z" fill="#0F1419"/>
<path d="M47.5517 190.207H40.7586V197H47.5517V190.207Z" fill="#0F1419"/>
<path d="M67.931 190.207H61.1379V197H67.931V190.207Z" fill="#0F1419"/>
<path d="M81.5172 190.207H74.7241V197H81.5172V190.207Z" fill="#0F1419"/>
<path d="M95.1034 190.207H88.3103V197H95.1034V190.207Z" fill="#0F1419"/>
<path d="M108.69 190.207H101.897V197H108.69V190.207Z" fill="#0F1419"/>
<path d="M122.276 190.207H115.483V197H122.276V190.207Z" fill="#0F1419"/>
<path d="M149.448 190.207H142.655V197H149.448V190.207Z" fill="#0F1419"/>
<path d="M169.828 190.207H163.034V197H169.828V190.207Z" fill="#0F1419"/>
</svg>
